<svg width="57" height="47" viewBox="0 0 57 47" fill="none" xmlns="http://www.w3.org/2000/svg">
<path d="M26.3513 10.3226C26.3513 10.3226 22.2979 6.16129 21.1702 4.77419C20.0426 3.3871 13.4595 3.3871 13.4595 3.3871H6.2973L2 4.77419V42.2258L7.72973 40.8387H12.027H14.8919L22.0541 45H27.7838L27.9884 17.2581L26.3513 10.3226Z" fill="white"/>
<path d="M30.6486 8.93548L27.9884 17.2581L27.7838 45C27.7838 45 36.4089 39.0501 37.8108 38.0645C39.2128 37.0789 47.8378 38.0645 47.8378 38.0645L52.1351 40.8387L55 42.2258V3.3871L47.8378 2L42.1081 3.3871L36.3784 4.77419L30.6486 8.93548Z" fill="white"/>
<path d="M27.7838 45H22.0541L14.8919 40.8387H12.027H7.72973L2 42.2258V4.77419L6.2973 3.3871H13.4595C13.4595 3.3871 20.0426 3.3871 21.1702 4.77419C22.2979 6.16129 26.3513 10.3226 26.3513 10.3226L27.9884 17.2581M27.7838 45C27.7838 45 36.4089 39.0501 37.8108 38.0645C39.2128 37.0789 47.8378 38.0645 47.8378 38.0645L52.1351 40.8387L55 42.2258V3.3871L47.8378 2L42.1081 3.3871L36.3784 4.77419L30.6486 8.93548L27.9884 17.2581M27.7838 45L27.9884 17.2581" stroke="black" stroke-width="3"/>
<path d="M38.0851 14.6393C40.5909 9.39809 49.2743 10.3392 49.3611 14.6393C49.4479 18.9393 39.9644 21.9769 44.3495 27.218" stroke="#A60000" stroke-width="2"/>
<ellipse cx="43.7234" cy="32.0677" rx="1.87943" ry="1.61654" fill="#A60000"/>
<path d="M15.5319 22.6159C17.0354 18.9471 22.2454 19.6058 22.2975 22.6159C22.3496 25.626 16.6595 27.7522 19.2906 31.4211" stroke="#A60000" stroke-width="2"/>
<ellipse cx="18.9149" cy="34.8158" rx="1.12766" ry="1.13158" fill="#A60000"/>
<path d="M6.51064 13.5633C8.0141 9.89445 13.2241 10.5532 13.2762 13.5633C13.3283 16.5733 7.63824 18.6996 10.2693 22.3684" stroke="#A60000" stroke-width="2"/>
<ellipse cx="9.89362" cy="25.7632" rx="1.12766" ry="1.13158" fill="#A60000"/>
</svg>
