<svg width="160" height="33" viewBox="0 0 160 33" fill="none" xmlns="http://www.w3.org/2000/svg">
<path d="M2.15625 8.86719H5.42578V17.1406L5.37891 19.3555L5.26172 21.875H5.33203L13.2422 8.86719H17.5898V26H14.3555V17.7734C14.3555 16.6719 14.4258 15.0391 14.5664 12.875H14.4727L6.52734 26H2.15625V8.86719ZM25.207 12.8984V17.9375H30.1992V12.8984H33.7734V26H30.1992V20.5977H25.207V26H21.6328V12.8984H25.207ZM47.0977 12.8281C49.2852 13.0078 51 13.6836 52.2422 14.8555C53.4844 16.0273 54.1055 17.5586 54.1055 19.4492C54.1055 21.3789 53.4922 22.9258 52.2656 24.0898C51.0391 25.2461 49.3164 25.9141 47.0977 26.0938V31.7656H43.7812V26.0938C41.5703 25.8906 39.8398 25.1992 38.5898 24.0195C37.3477 22.832 36.7266 21.3086 36.7266 19.4492C36.7266 17.4727 37.3281 15.9141 38.5312 14.7734C39.7344 13.625 41.4844 12.9766 43.7812 12.8281V7.76562H47.0977V12.8281ZM40.4062 19.4492C40.4062 20.5508 40.707 21.4492 41.3086 22.1445C41.9102 22.832 42.7344 23.2461 43.7812 23.3867V15.5117C42.7734 15.6445 41.957 16.0703 41.332 16.7891C40.7148 17.5078 40.4062 18.3945 40.4062 19.4492ZM50.4375 19.4492C50.4375 18.418 50.1445 17.5508 49.5586 16.8477C48.9727 16.1367 48.1523 15.707 47.0977 15.5586V23.3867C48.1367 23.2461 48.9531 22.8281 49.5469 22.1328C50.1406 21.4375 50.4375 20.543 50.4375 19.4492ZM59.918 19.4258C59.918 20.7227 60.1289 21.7031 60.5508 22.3672C60.9805 23.0312 61.6758 23.3633 62.6367 23.3633C63.5898 23.3633 64.2734 23.0352 64.6875 22.3789C65.1094 21.7148 65.3203 20.7305 65.3203 19.4258C65.3203 18.1289 65.1094 17.1562 64.6875 16.5078C64.2656 15.8594 63.5742 15.5352 62.6133 15.5352C61.6602 15.5352 60.9727 15.8594 60.5508 16.5078C60.1289 17.1484 59.918 18.1211 59.918 19.4258ZM68.9766 19.4258C68.9766 21.5586 68.4141 23.2266 67.2891 24.4297C66.1641 25.6328 64.5977 26.2344 62.5898 26.2344C61.332 26.2344 60.2227 25.9609 59.2617 25.4141C58.3008 24.8594 57.5625 24.0664 57.0469 23.0352C56.5312 22.0039 56.2734 20.8008 56.2734 19.4258C56.2734 17.2852 56.832 15.6211 57.9492 14.4336C59.0664 13.2461 60.6367 12.6523 62.6602 12.6523C63.918 12.6523 65.0273 12.9258 65.9883 13.4727C66.9492 14.0195 67.6875 14.8047 68.2031 15.8281C68.7188 16.8516 68.9766 18.0508 68.9766 19.4258ZM80.1328 23.3867V15.582H77.4492C77.2539 17.0352 76.9844 18.4141 76.6406 19.7188C76.3047 21.0234 75.8359 22.2461 75.2344 23.3867H80.1328ZM85.6289 30.6992H82.418V26H73.6055V30.6992H70.3945V23.3867H71.4961C72.2461 22.2227 72.875 20.7539 73.3828 18.9805C73.8906 17.207 74.2461 15.1797 74.4492 12.8984H83.707V23.3867H85.6289V30.6992ZM90.7148 19.4258C90.7148 20.7227 90.9258 21.7031 91.3477 22.3672C91.7773 23.0312 92.4727 23.3633 93.4336 23.3633C94.3867 23.3633 95.0703 23.0352 95.4844 22.3789C95.9062 21.7148 96.1172 20.7305 96.1172 19.4258C96.1172 18.1289 95.9062 17.1562 95.4844 16.5078C95.0625 15.8594 94.3711 15.5352 93.4102 15.5352C92.457 15.5352 91.7695 15.8594 91.3477 16.5078C90.9258 17.1484 90.7148 18.1211 90.7148 19.4258ZM99.7734 19.4258C99.7734 21.5586 99.2109 23.2266 98.0859 24.4297C96.9609 25.6328 95.3945 26.2344 93.3867 26.2344C92.1289 26.2344 91.0195 25.9609 90.0586 25.4141C89.0977 24.8594 88.3594 24.0664 87.8438 23.0352C87.3281 22.0039 87.0703 20.8008 87.0703 19.4258C87.0703 17.2852 87.6289 15.6211 88.7461 14.4336C89.8633 13.2461 91.4336 12.6523 93.457 12.6523C94.7148 12.6523 95.8242 12.9258 96.7852 13.4727C97.7461 14.0195 98.4844 14.8047 99 15.8281C99.5156 16.8516 99.7734 18.0508 99.7734 19.4258ZM108.047 26.2344C103.969 26.2344 101.93 23.9961 101.93 19.5195C101.93 17.293 102.484 15.5938 103.594 14.4219C104.703 13.2422 106.293 12.6523 108.363 12.6523C109.879 12.6523 111.238 12.9492 112.441 13.543L111.387 16.3086C110.824 16.082 110.301 15.8984 109.816 15.7578C109.332 15.6094 108.848 15.5352 108.363 15.5352C106.504 15.5352 105.574 16.8555 105.574 19.4961C105.574 22.0586 106.504 23.3398 108.363 23.3398C109.051 23.3398 109.688 23.25 110.273 23.0703C110.859 22.8828 111.445 22.5938 112.031 22.2031V25.2617C111.453 25.6289 110.867 25.8828 110.273 26.0234C109.688 26.1641 108.945 26.2344 108.047 26.2344ZM123.668 12.8984H127.605L122.414 19.1797L128.062 26H124.008L118.652 19.3555V26H115.078V12.8984H118.652V19.2617L123.668 12.8984ZM138.258 26L137.566 24.2188H137.473C136.871 24.9766 136.25 25.5039 135.609 25.8008C134.977 26.0898 134.148 26.2344 133.125 26.2344C131.867 26.2344 130.875 25.875 130.148 25.1562C129.43 24.4375 129.07 23.4141 129.07 22.0859C129.07 20.6953 129.555 19.6719 130.523 19.0156C131.5 18.3516 132.969 17.9844 134.93 17.9141L137.203 17.8438V17.2695C137.203 15.9414 136.523 15.2773 135.164 15.2773C134.117 15.2773 132.887 15.5938 131.473 16.2266L130.289 13.8125C131.797 13.0234 133.469 12.6289 135.305 12.6289C137.062 12.6289 138.41 13.0117 139.348 13.7773C140.285 14.543 140.754 15.707 140.754 17.2695V26H138.258ZM137.203 19.9297L135.82 19.9766C134.781 20.0078 134.008 20.1953 133.5 20.5391C132.992 20.8828 132.738 21.4062 132.738 22.1094C132.738 23.1172 133.316 23.6211 134.473 23.6211C135.301 23.6211 135.961 23.3828 136.453 22.9062C136.953 22.4297 137.203 21.7969 137.203 21.0078V19.9297Z" fill="#FFD600"/>
<path d="M158.352 14.7949L151.851 28.4072L146.65 31L146 25.8144L151.851 11.5539C151.851 11.5539 153.418 7.19545 155.752 7.01646C157.45 6.88622 158.738 7.52844 159.653 8.96107C160.909 10.93 158.352 14.7949 158.352 14.7949Z" fill="#FFBF42"/>
<path d="M158.352 14.7949L151.851 28.4072L146.65 31L146 25.8144L151.851 11.5539C151.851 11.5539 153.418 7.19545 155.752 7.01646C157.45 6.88622 158.738 7.52844 159.653 8.96107C160.909 10.93 158.352 14.7949 158.352 14.7949Z" fill="url(#paint0_linear)"/>
<defs>
<linearGradient id="paint0_linear" x1="153" y1="7" x2="153" y2="31" gradientUnits="userSpaceOnUse">
<stop stop-color="#FF0000"/>
<stop offset="1" stop-color="white" stop-opacity="0"/>
</linearGradient>
</defs>
</svg>
