<svg width="168" height="41" viewBox="0 0 168 41" fill="none" xmlns="http://www.w3.org/2000/svg">
<g filter="url(#filter0_d)">
<path d="M5.15625 8.86719H8.42578V17.1406L8.37891 19.3555L8.26172 21.875H8.33203L16.2422 8.86719H20.5898V26H17.3555V17.7734C17.3555 16.6719 17.4258 15.0391 17.5664 12.875H17.4727L9.52734 26H5.15625V8.86719ZM28.207 12.8984V17.9375H33.1992V12.8984H36.7734V26H33.1992V20.5977H28.207V26H24.6328V12.8984H28.207ZM50.0977 12.8281C52.2852 13.0078 54 13.6836 55.2422 14.8555C56.4844 16.0273 57.1055 17.5586 57.1055 19.4492C57.1055 21.3789 56.4922 22.9258 55.2656 24.0898C54.0391 25.2461 52.3164 25.9141 50.0977 26.0938V31.7656H46.7812V26.0938C44.5703 25.8906 42.8398 25.1992 41.5898 24.0195C40.3477 22.832 39.7266 21.3086 39.7266 19.4492C39.7266 17.4727 40.3281 15.9141 41.5312 14.7734C42.7344 13.625 44.4844 12.9766 46.7812 12.8281V7.76562H50.0977V12.8281ZM43.4062 19.4492C43.4062 20.5508 43.707 21.4492 44.3086 22.1445C44.9102 22.832 45.7344 23.2461 46.7812 23.3867V15.5117C45.7734 15.6445 44.957 16.0703 44.332 16.7891C43.7148 17.5078 43.4062 18.3945 43.4062 19.4492ZM53.4375 19.4492C53.4375 18.418 53.1445 17.5508 52.5586 16.8477C51.9727 16.1367 51.1523 15.707 50.0977 15.5586V23.3867C51.1367 23.2461 51.9531 22.8281 52.5469 22.1328C53.1406 21.4375 53.4375 20.543 53.4375 19.4492ZM62.918 19.4258C62.918 20.7227 63.1289 21.7031 63.5508 22.3672C63.9805 23.0312 64.6758 23.3633 65.6367 23.3633C66.5898 23.3633 67.2734 23.0352 67.6875 22.3789C68.1094 21.7148 68.3203 20.7305 68.3203 19.4258C68.3203 18.1289 68.1094 17.1562 67.6875 16.5078C67.2656 15.8594 66.5742 15.5352 65.6133 15.5352C64.6602 15.5352 63.9727 15.8594 63.5508 16.5078C63.1289 17.1484 62.918 18.1211 62.918 19.4258ZM71.9766 19.4258C71.9766 21.5586 71.4141 23.2266 70.2891 24.4297C69.1641 25.6328 67.5977 26.2344 65.5898 26.2344C64.332 26.2344 63.2227 25.9609 62.2617 25.4141C61.3008 24.8594 60.5625 24.0664 60.0469 23.0352C59.5312 22.0039 59.2734 20.8008 59.2734 19.4258C59.2734 17.2852 59.832 15.6211 60.9492 14.4336C62.0664 13.2461 63.6367 12.6523 65.6602 12.6523C66.918 12.6523 68.0273 12.9258 68.9883 13.4727C69.9492 14.0195 70.6875 14.8047 71.2031 15.8281C71.7188 16.8516 71.9766 18.0508 71.9766 19.4258ZM83.1328 23.3867V15.582H80.4492C80.2539 17.0352 79.9844 18.4141 79.6406 19.7188C79.3047 21.0234 78.8359 22.2461 78.2344 23.3867H83.1328ZM88.6289 30.6992H85.418V26H76.6055V30.6992H73.3945V23.3867H74.4961C75.2461 22.2227 75.875 20.7539 76.3828 18.9805C76.8906 17.207 77.2461 15.1797 77.4492 12.8984H86.707V23.3867H88.6289V30.6992ZM93.7148 19.4258C93.7148 20.7227 93.9258 21.7031 94.3477 22.3672C94.7773 23.0312 95.4727 23.3633 96.4336 23.3633C97.3867 23.3633 98.0703 23.0352 98.4844 22.3789C98.9062 21.7148 99.1172 20.7305 99.1172 19.4258C99.1172 18.1289 98.9062 17.1562 98.4844 16.5078C98.0625 15.8594 97.3711 15.5352 96.4102 15.5352C95.457 15.5352 94.7695 15.8594 94.3477 16.5078C93.9258 17.1484 93.7148 18.1211 93.7148 19.4258ZM102.773 19.4258C102.773 21.5586 102.211 23.2266 101.086 24.4297C99.9609 25.6328 98.3945 26.2344 96.3867 26.2344C95.1289 26.2344 94.0195 25.9609 93.0586 25.4141C92.0977 24.8594 91.3594 24.0664 90.8438 23.0352C90.3281 22.0039 90.0703 20.8008 90.0703 19.4258C90.0703 17.2852 90.6289 15.6211 91.7461 14.4336C92.8633 13.2461 94.4336 12.6523 96.457 12.6523C97.7148 12.6523 98.8242 12.9258 99.7852 13.4727C100.746 14.0195 101.484 14.8047 102 15.8281C102.516 16.8516 102.773 18.0508 102.773 19.4258ZM111.047 26.2344C106.969 26.2344 104.93 23.9961 104.93 19.5195C104.93 17.293 105.484 15.5938 106.594 14.4219C107.703 13.2422 109.293 12.6523 111.363 12.6523C112.879 12.6523 114.238 12.9492 115.441 13.543L114.387 16.3086C113.824 16.082 113.301 15.8984 112.816 15.7578C112.332 15.6094 111.848 15.5352 111.363 15.5352C109.504 15.5352 108.574 16.8555 108.574 19.4961C108.574 22.0586 109.504 23.3398 111.363 23.3398C112.051 23.3398 112.688 23.25 113.273 23.0703C113.859 22.8828 114.445 22.5938 115.031 22.2031V25.2617C114.453 25.6289 113.867 25.8828 113.273 26.0234C112.688 26.1641 111.945 26.2344 111.047 26.2344ZM126.668 12.8984H130.605L125.414 19.1797L131.062 26H127.008L121.652 19.3555V26H118.078V12.8984H121.652V19.2617L126.668 12.8984ZM141.258 26L140.566 24.2188H140.473C139.871 24.9766 139.25 25.5039 138.609 25.8008C137.977 26.0898 137.148 26.2344 136.125 26.2344C134.867 26.2344 133.875 25.875 133.148 25.1562C132.43 24.4375 132.07 23.4141 132.07 22.0859C132.07 20.6953 132.555 19.6719 133.523 19.0156C134.5 18.3516 135.969 17.9844 137.93 17.9141L140.203 17.8438V17.2695C140.203 15.9414 139.523 15.2773 138.164 15.2773C137.117 15.2773 135.887 15.5938 134.473 16.2266L133.289 13.8125C134.797 13.0234 136.469 12.6289 138.305 12.6289C140.062 12.6289 141.41 13.0117 142.348 13.7773C143.285 14.543 143.754 15.707 143.754 17.2695V26H141.258ZM140.203 19.9297L138.82 19.9766C137.781 20.0078 137.008 20.1953 136.5 20.5391C135.992 20.8828 135.738 21.4062 135.738 22.1094C135.738 23.1172 136.316 23.6211 137.473 23.6211C138.301 23.6211 138.961 23.3828 139.453 22.9062C139.953 22.4297 140.203 21.7969 140.203 21.0078V19.9297Z" fill="#3CC919"/>
<path d="M5.15625 8.86719V8.36719H4.65625V8.86719H5.15625ZM8.42578 8.86719H8.92578V8.36719H8.42578V8.86719ZM8.42578 17.1406L8.92578 17.1512V17.1406H8.42578ZM8.37891 19.3555L8.87853 19.3787L8.87879 19.366L8.37891 19.3555ZM8.26172 21.875L7.76226 21.8518L7.73792 22.375H8.26172V21.875ZM8.33203 21.875V22.375H8.61317L8.75924 22.1348L8.33203 21.875ZM16.2422 8.86719V8.36719H15.9611L15.815 8.6074L16.2422 8.86719ZM20.5898 8.86719H21.0898V8.36719H20.5898V8.86719ZM20.5898 26V26.5H21.0898V26H20.5898ZM17.3555 26H16.8555V26.5H17.3555V26ZM17.5664 12.875L18.0654 12.9074L18.1 12.375H17.5664V12.875ZM17.4727 12.875V12.375H17.1909L17.0449 12.6161L17.4727 12.875ZM9.52734 26V26.5H9.80914L9.95508 26.2589L9.52734 26ZM5.15625 26H4.65625V26.5H5.15625V26ZM5.15625 9.36719H8.42578V8.36719H5.15625V9.36719ZM7.92578 8.86719V17.1406H8.92578V8.86719H7.92578ZM7.92589 17.13L7.87902 19.3449L8.87879 19.366L8.92567 17.1512L7.92589 17.13ZM7.87945 19.3322L7.76226 21.8518L8.76118 21.8982L8.87837 19.3787L7.87945 19.3322ZM8.26172 22.375H8.33203V21.375H8.26172V22.375ZM8.75924 22.1348L16.6694 9.12698L15.815 8.6074L7.90482 21.6152L8.75924 22.1348ZM16.2422 9.36719H20.5898V8.36719H16.2422V9.36719ZM20.0898 8.86719V26H21.0898V8.86719H20.0898ZM20.5898 25.5H17.3555V26.5H20.5898V25.5ZM17.8555 26V17.7734H16.8555V26H17.8555ZM17.8555 17.7734C17.8555 16.6886 17.9249 15.0689 18.0654 12.9074L17.0675 12.8426C16.9267 15.0092 16.8555 16.6551 16.8555 17.7734H17.8555ZM17.5664 12.375H17.4727V13.375H17.5664V12.375ZM17.0449 12.6161L9.09961 25.7411L9.95508 26.2589L17.9004 13.1339L17.0449 12.6161ZM9.52734 25.5H5.15625V26.5H9.52734V25.5ZM5.65625 26V8.86719H4.65625V26H5.65625ZM28.207 12.8984H28.707V12.3984H28.207V12.8984ZM28.207 17.9375H27.707V18.4375H28.207V17.9375ZM33.1992 17.9375V18.4375H33.6992V17.9375H33.1992ZM33.1992 12.8984V12.3984H32.6992V12.8984H33.1992ZM36.7734 12.8984H37.2734V12.3984H36.7734V12.8984ZM36.7734 26V26.5H37.2734V26H36.7734ZM33.1992 26H32.6992V26.5H33.1992V26ZM33.1992 20.5977H33.6992V20.0977H33.1992V20.5977ZM28.207 20.5977V20.0977H27.707V20.5977H28.207ZM28.207 26V26.5H28.707V26H28.207ZM24.6328 26H24.1328V26.5H24.6328V26ZM24.6328 12.8984V12.3984H24.1328V12.8984H24.6328ZM27.707 12.8984V17.9375H28.707V12.8984H27.707ZM28.207 18.4375H33.1992V17.4375H28.207V18.4375ZM33.6992 17.9375V12.8984H32.6992V17.9375H33.6992ZM33.1992 13.3984H36.7734V12.3984H33.1992V13.3984ZM36.2734 12.8984V26H37.2734V12.8984H36.2734ZM36.7734 25.5H33.1992V26.5H36.7734V25.5ZM33.6992 26V20.5977H32.6992V26H33.6992ZM33.1992 20.0977H28.207V21.0977H33.1992V20.0977ZM27.707 20.5977V26H28.707V20.5977H27.707ZM28.207 25.5H24.6328V26.5H28.207V25.5ZM25.1328 26V12.8984H24.1328V26H25.1328ZM24.6328 13.3984H28.207V12.3984H24.6328V13.3984ZM50.0977 12.8281H49.5977V13.2887L50.0567 13.3264L50.0977 12.8281ZM55.2656 24.0898L55.6086 24.4537L55.6098 24.4525L55.2656 24.0898ZM50.0977 26.0938L50.0573 25.5954L49.5977 25.6326V26.0938H50.0977ZM50.0977 31.7656V32.2656H50.5977V31.7656H50.0977ZM46.7812 31.7656H46.2812V32.2656H46.7812V31.7656ZM46.7812 26.0938H47.2812V25.6376L46.827 25.5958L46.7812 26.0938ZM41.5898 24.0195L41.2443 24.381L41.2467 24.3832L41.5898 24.0195ZM41.5312 14.7734L41.8753 15.1363L41.8765 15.1351L41.5312 14.7734ZM46.7812 12.8281L46.8135 13.3271L47.2812 13.2969V12.8281H46.7812ZM46.7812 7.76562V7.26562H46.2812V7.76562H46.7812ZM50.0977 7.76562H50.5977V7.26562H50.0977V7.76562ZM44.3086 22.1445L43.9305 22.4717L43.9323 22.4738L44.3086 22.1445ZM46.7812 23.3867L46.7147 23.8823L47.2812 23.9584V23.3867H46.7812ZM46.7812 15.5117H47.2812V14.9415L46.7159 15.016L46.7812 15.5117ZM44.332 16.7891L43.9547 16.461L43.9527 16.4633L44.332 16.7891ZM52.5586 16.8477L52.1727 17.1657L52.1745 17.1677L52.5586 16.8477ZM50.0977 15.5586L50.1673 15.0635L49.5977 14.9833V15.5586H50.0977ZM50.0977 23.3867H49.5977V23.9589L50.1647 23.8822L50.0977 23.3867ZM50.0567 13.3264C52.1638 13.4995 53.7605 14.145 54.8991 15.2192L55.5853 14.4918C54.2395 13.2222 52.4065 12.5161 50.1386 12.3298L50.0567 13.3264ZM54.8991 15.2192C56.0298 16.2859 56.6055 17.6799 56.6055 19.4492H57.6055C57.6055 17.4373 56.9389 15.7688 55.5853 14.4918L54.8991 15.2192ZM56.6055 19.4492C56.6055 21.263 56.0341 22.6712 54.9214 23.7272L55.6098 24.4525C56.9503 23.1804 57.6055 21.4948 57.6055 19.4492H56.6055ZM54.9227 23.726C53.8019 24.7825 52.1993 25.4219 50.0573 25.5954L50.138 26.5921C52.4335 26.4062 54.2762 25.7097 55.6086 24.4537L54.9227 23.726ZM49.5977 26.0938V31.7656H50.5977V26.0938H49.5977ZM50.0977 31.2656H46.7812V32.2656H50.0977V31.2656ZM47.2812 31.7656V26.0938H46.2812V31.7656H47.2812ZM46.827 25.5958C44.6946 25.3999 43.0806 24.7389 41.933 23.6559L41.2467 24.3832C42.5991 25.6595 44.446 26.3813 46.7355 26.5917L46.827 25.5958ZM41.9354 23.6581C40.8005 22.5732 40.2266 21.1845 40.2266 19.4492H39.2266C39.2266 21.4327 39.8948 23.0909 41.2443 24.381L41.9354 23.6581ZM40.2266 19.4492C40.2266 17.5814 40.7907 16.1645 41.8753 15.1363L41.1872 14.4106C39.8656 15.6636 39.2266 17.364 39.2266 19.4492H40.2266ZM41.8765 15.1351C42.9671 14.0941 44.5891 13.4708 46.8135 13.3271L46.749 12.3292C44.3796 12.4823 42.5017 13.1559 41.186 14.4118L41.8765 15.1351ZM47.2812 12.8281V7.76562H46.2812V12.8281H47.2812ZM46.7812 8.26562H50.0977V7.26562H46.7812V8.26562ZM49.5977 7.76562V12.8281H50.5977V7.76562H49.5977ZM42.9062 19.4492C42.9062 20.646 43.2354 21.6683 43.9305 22.4717L44.6867 21.8174C44.1787 21.2302 43.9062 20.4556 43.9062 19.4492H42.9062ZM43.9323 22.4738C44.6259 23.2664 45.5677 23.7282 46.7147 23.8823L46.8478 22.8912C45.901 22.764 45.1944 22.3976 44.6849 21.8153L43.9323 22.4738ZM47.2812 23.3867V15.5117H46.2812V23.3867H47.2812ZM46.7159 15.016C45.596 15.1636 44.6655 15.6436 43.9547 16.461L44.7093 17.1172C45.2486 16.497 45.9509 16.1255 46.8466 16.0074L46.7159 15.016ZM43.9527 16.4633C43.2487 17.2832 42.9062 18.2895 42.9062 19.4492H43.9062C43.9062 18.4995 44.181 17.7325 44.7114 17.1148L43.9527 16.4633ZM53.9375 19.4492C53.9375 18.3167 53.613 17.3319 52.9427 16.5276L52.1745 17.1677C52.676 17.7696 52.9375 18.5192 52.9375 19.4492H53.9375ZM52.9444 16.5297C52.2666 15.7073 51.3252 15.2264 50.1673 15.0635L50.028 16.0537C50.9795 16.1876 51.6787 16.5662 52.1728 17.1657L52.9444 16.5297ZM49.5977 15.5586V23.3867H50.5977V15.5586H49.5977ZM50.1647 23.8822C51.3065 23.7277 52.2418 23.26 52.9271 22.4575L52.1666 21.8081C51.6644 22.3963 50.9669 22.7645 50.0306 22.8912L50.1647 23.8822ZM52.9271 22.4575C53.6127 21.6547 53.9375 20.6376 53.9375 19.4492H52.9375C52.9375 20.4484 52.6686 21.2203 52.1666 21.8081L52.9271 22.4575ZM63.5508 22.3672L63.1287 22.6353L63.131 22.6388L63.5508 22.3672ZM67.6875 22.3789L67.2655 22.1108L67.2646 22.1121L67.6875 22.3789ZM63.5508 16.5078L63.9684 16.7828L63.9699 16.7805L63.5508 16.5078ZM62.2617 25.4141L62.0118 25.8471L62.0144 25.8486L62.2617 25.4141ZM62.418 19.4258C62.418 20.7623 62.6327 21.8546 63.1287 22.6353L63.9728 22.0991C63.6251 21.5517 63.418 20.683 63.418 19.4258H62.418ZM63.131 22.6388C63.6735 23.4772 64.5481 23.8633 65.6367 23.8633V22.8633C64.8034 22.8633 64.2874 22.5853 63.9706 22.0956L63.131 22.6388ZM65.6367 23.8633C66.7163 23.8633 67.583 23.4816 68.1104 22.6457L67.2646 22.1121C66.9639 22.5887 66.4634 22.8633 65.6367 22.8633V23.8633ZM68.1095 22.647C68.6058 21.8659 68.8203 20.7694 68.8203 19.4258H67.8203C67.8203 20.6915 67.613 21.5638 67.2655 22.1108L68.1095 22.647ZM68.8203 19.4258C68.8203 18.0907 68.606 17.0028 68.1066 16.2351L67.2684 16.7805C67.6127 17.3097 67.8203 18.1672 67.8203 19.4258H68.8203ZM68.1066 16.2351C67.5696 15.4097 66.6966 15.0352 65.6133 15.0352V16.0352C66.4518 16.0352 66.9617 16.309 67.2684 16.7805L68.1066 16.2351ZM65.6133 15.0352C64.5359 15.0352 63.6679 15.411 63.1317 16.2351L63.9699 16.7805C64.2774 16.3078 64.7844 16.0352 65.6133 16.0352V15.0352ZM63.1332 16.2328C62.6317 16.9943 62.418 18.0843 62.418 19.4258H63.418C63.418 18.1579 63.6261 17.3026 63.9684 16.7828L63.1332 16.2328ZM71.4766 19.4258C71.4766 21.4704 70.939 23.0025 69.9239 24.0882L70.6543 24.7712C71.8891 23.4506 72.4766 21.6468 72.4766 19.4258H71.4766ZM69.9239 24.0882C68.9136 25.1686 67.4919 25.7344 65.5898 25.7344V26.7344C67.7035 26.7344 69.4145 26.097 70.6543 24.7712L69.9239 24.0882ZM65.5898 25.7344C64.4066 25.7344 63.3847 25.4779 62.509 24.9795L62.0144 25.8486C63.0606 26.444 64.2574 26.7344 65.5898 26.7344V25.7344ZM62.5117 24.981C61.639 24.4773 60.9677 23.7588 60.4941 22.8115L59.5997 23.2588C60.1573 24.374 60.9625 25.2414 62.0118 25.8471L62.5117 24.981ZM60.4941 22.8115C60.0192 21.8619 59.7734 20.738 59.7734 19.4258H58.7734C58.7734 20.8636 59.0433 22.1459 59.5997 23.2588L60.4941 22.8115ZM59.7734 19.4258C59.7734 17.3715 60.308 15.8449 61.3134 14.7762L60.585 14.091C59.3561 15.3973 58.7734 17.1988 58.7734 19.4258H59.7734ZM61.3134 14.7762C62.3142 13.7124 63.7391 13.1523 65.6602 13.1523V12.1523C63.5344 12.1523 61.8186 12.7798 60.585 14.091L61.3134 14.7762ZM65.6602 13.1523C66.8434 13.1523 67.8653 13.4089 68.741 13.9072L69.2356 13.0381C68.1894 12.4427 66.9926 12.1523 65.6602 12.1523V13.1523ZM68.741 13.9072C69.6131 14.4035 70.2836 15.1142 70.7566 16.0531L71.6497 15.6032C71.0914 14.4952 70.2854 13.6355 69.2356 13.0381L68.741 13.9072ZM70.7566 16.0531C71.2307 16.9941 71.4766 18.1135 71.4766 19.4258H72.4766C72.4766 17.9881 72.2068 16.709 71.6497 15.6032L70.7566 16.0531ZM83.1328 23.3867V23.8867H83.6328V23.3867H83.1328ZM83.1328 15.582H83.6328V15.082H83.1328V15.582ZM80.4492 15.582V15.082H80.0119L79.9537 15.5154L80.4492 15.582ZM79.6406 19.7188L79.1571 19.5914L79.1564 19.5941L79.6406 19.7188ZM78.2344 23.3867L77.7921 23.1535L77.4054 23.8867H78.2344V23.3867ZM88.6289 30.6992V31.1992H89.1289V30.6992H88.6289ZM85.418 30.6992H84.918V31.1992H85.418V30.6992ZM85.418 26H85.918V25.5H85.418V26ZM76.6055 26V25.5H76.1055V26H76.6055ZM76.6055 30.6992V31.1992H77.1055V30.6992H76.6055ZM73.3945 30.6992H72.8945V31.1992H73.3945V30.6992ZM73.3945 23.3867V22.8867H72.8945V23.3867H73.3945ZM74.4961 23.3867V23.8867H74.7687L74.9164 23.6575L74.4961 23.3867ZM77.4492 12.8984V12.3984H76.9918L76.9512 12.8541L77.4492 12.8984ZM86.707 12.8984H87.207V12.3984H86.707V12.8984ZM86.707 23.3867H86.207V23.8867H86.707V23.3867ZM88.6289 23.3867H89.1289V22.8867H88.6289V23.3867ZM83.6328 23.3867V15.582H82.6328V23.3867H83.6328ZM83.1328 15.082H80.4492V16.082H83.1328V15.082ZM79.9537 15.5154C79.7609 16.9498 79.4952 18.3083 79.1571 19.5914L80.1241 19.8461C80.4736 18.5198 80.7469 17.1205 80.9448 15.6486L79.9537 15.5154ZM79.1564 19.5941C78.8298 20.8627 78.3747 22.0488 77.7921 23.1535L78.6766 23.62C79.2972 22.4434 79.7796 21.1841 80.1248 19.8434L79.1564 19.5941ZM78.2344 23.8867H83.1328V22.8867H78.2344V23.8867ZM88.6289 30.1992H85.418V31.1992H88.6289V30.1992ZM85.918 30.6992V26H84.918V30.6992H85.918ZM85.418 25.5H76.6055V26.5H85.418V25.5ZM76.1055 26V30.6992H77.1055V26H76.1055ZM76.6055 30.1992H73.3945V31.1992H76.6055V30.1992ZM73.8945 30.6992V23.3867H72.8945V30.6992H73.8945ZM73.3945 23.8867H74.4961V22.8867H73.3945V23.8867ZM74.9164 23.6575C75.7001 22.4412 76.3464 20.924 76.8635 19.1181L75.9021 18.8428C75.4036 20.5838 74.7921 22.0041 74.0758 23.1159L74.9164 23.6575ZM76.8635 19.1181C77.3818 17.3079 77.742 15.2484 77.9472 12.9428L76.9512 12.8541C76.7502 15.111 76.3994 17.1061 75.9021 18.8428L76.8635 19.1181ZM77.4492 13.3984H86.707V12.3984H77.4492V13.3984ZM86.207 12.8984V23.3867H87.207V12.8984H86.207ZM86.707 23.8867H88.6289V22.8867H86.707V23.8867ZM88.1289 23.3867V30.6992H89.1289V23.3867H88.1289ZM94.3477 22.3672L93.9256 22.6353L93.9279 22.6388L94.3477 22.3672ZM98.4844 22.3789L98.0623 22.1108L98.0615 22.1121L98.4844 22.3789ZM94.3477 16.5078L94.7652 16.7828L94.7668 16.7805L94.3477 16.5078ZM93.0586 25.4141L92.8086 25.8471L92.8113 25.8486L93.0586 25.4141ZM93.2148 19.4258C93.2148 20.7623 93.4296 21.8546 93.9256 22.6353L94.7697 22.0991C94.4219 21.5517 94.2148 20.683 94.2148 19.4258H93.2148ZM93.9279 22.6388C94.4704 23.4772 95.345 23.8633 96.4336 23.8633V22.8633C95.6003 22.8633 95.0843 22.5853 94.7674 22.0956L93.9279 22.6388ZM96.4336 23.8633C97.5132 23.8633 98.3798 23.4816 98.9072 22.6457L98.0615 22.1121C97.7608 22.5887 97.2602 22.8633 96.4336 22.8633V23.8633ZM98.9064 22.647C99.4026 21.8659 99.6172 20.7694 99.6172 19.4258H98.6172C98.6172 20.6915 98.4099 21.5638 98.0623 22.1108L98.9064 22.647ZM99.6172 19.4258C99.6172 18.0907 99.4029 17.0028 98.9035 16.2351L98.0653 16.7805C98.4096 17.3097 98.6172 18.1672 98.6172 19.4258H99.6172ZM98.9035 16.2351C98.3665 15.4097 97.4935 15.0352 96.4102 15.0352V16.0352C97.2487 16.0352 97.7585 16.309 98.0653 16.7805L98.9035 16.2351ZM96.4102 15.0352C95.3328 15.0352 94.4648 15.411 93.9285 16.2351L94.7668 16.7805C95.0743 16.3078 95.5813 16.0352 96.4102 16.0352V15.0352ZM93.9301 16.2328C93.4286 16.9943 93.2148 18.0843 93.2148 19.4258H94.2148C94.2148 18.1579 94.423 17.3026 94.7652 16.7828L93.9301 16.2328ZM102.273 19.4258C102.273 21.4704 101.736 23.0025 100.721 24.0882L101.451 24.7712C102.686 23.4506 103.273 21.6468 103.273 19.4258H102.273ZM100.721 24.0882C99.7105 25.1686 98.2887 25.7344 96.3867 25.7344V26.7344C98.5003 26.7344 100.211 26.097 101.451 24.7712L100.721 24.0882ZM96.3867 25.7344C95.2035 25.7344 94.1816 25.4779 93.3059 24.9795L92.8113 25.8486C93.8575 26.444 95.0543 26.7344 96.3867 26.7344V25.7344ZM93.3086 24.981C92.4359 24.4773 91.7646 23.7588 91.291 22.8115L90.3965 23.2588C90.9542 24.374 91.7594 25.2414 92.8086 25.8471L93.3086 24.981ZM91.291 22.8115C90.8161 21.8619 90.5703 20.738 90.5703 19.4258H89.5703C89.5703 20.8636 89.8401 22.1459 90.3965 23.2588L91.291 22.8115ZM90.5703 19.4258C90.5703 17.3715 91.1049 15.8449 92.1103 14.7762L91.3819 14.091C90.1529 15.3973 89.5703 17.1988 89.5703 19.4258H90.5703ZM92.1103 14.7762C93.1111 13.7124 94.536 13.1523 96.457 13.1523V12.1523C94.3312 12.1523 92.6155 12.7798 91.3819 14.091L92.1103 14.7762ZM96.457 13.1523C97.6403 13.1523 98.6622 13.4089 99.5378 13.9072L100.032 13.0381C98.9863 12.4427 97.7894 12.1523 96.457 12.1523V13.1523ZM99.5378 13.9072C100.41 14.4035 101.08 15.1142 101.553 16.0531L102.447 15.6032C101.888 14.4952 101.082 13.6355 100.032 13.0381L99.5378 13.9072ZM101.553 16.0531C102.028 16.9941 102.273 18.1135 102.273 19.4258H103.273C103.273 17.9881 103.004 16.709 102.447 15.6032L101.553 16.0531ZM106.594 14.4219L106.957 14.7656L106.958 14.7644L106.594 14.4219ZM115.441 13.543L115.909 13.7211L116.071 13.296L115.663 13.0946L115.441 13.543ZM114.387 16.3086L114.2 16.7724L114.672 16.9627L114.854 16.4868L114.387 16.3086ZM112.816 15.7578L112.67 16.2359L112.677 16.238L112.816 15.7578ZM113.273 23.0703L113.42 23.5484L113.426 23.5465L113.273 23.0703ZM115.031 22.2031H115.531V21.2689L114.754 21.7871L115.031 22.2031ZM115.031 25.2617L115.299 25.6838L115.531 25.5365V25.2617H115.031ZM113.273 26.0234L113.158 25.5369L113.157 25.5372L113.273 26.0234ZM111.047 25.7344C109.098 25.7344 107.724 25.2016 106.829 24.2189C105.925 23.2275 105.43 21.6917 105.43 19.5195H104.43C104.43 21.8239 104.954 23.6456 106.089 24.8924C107.233 26.148 108.918 26.7344 111.047 26.7344V25.7344ZM105.43 19.5195C105.43 17.3717 105.964 15.8142 106.957 14.7656L106.231 14.0781C105.005 15.3733 104.43 17.2142 104.43 19.5195H105.43ZM106.958 14.7644C107.948 13.7114 109.39 13.1523 111.363 13.1523V12.1523C109.196 12.1523 107.458 12.773 106.23 14.0793L106.958 14.7644ZM111.363 13.1523C112.812 13.1523 114.094 13.4357 115.22 13.9913L115.663 13.0946C114.382 12.4627 112.946 12.1523 111.363 12.1523V13.1523ZM114.974 13.3648L113.92 16.1304L114.854 16.4868L115.909 13.7211L114.974 13.3648ZM114.574 15.8448C113.998 15.6132 113.459 15.4237 112.956 15.2776L112.677 16.238C113.142 16.3731 113.65 16.5509 114.2 16.7724L114.574 15.8448ZM112.963 15.2798C112.433 15.1174 111.9 15.0352 111.363 15.0352V16.0352C111.796 16.0352 112.231 16.1013 112.67 16.2359L112.963 15.2798ZM111.363 15.0352C110.299 15.0352 109.436 15.4227 108.863 16.2375C108.312 17.0202 108.074 18.1324 108.074 19.4961H109.074C109.074 18.2192 109.302 17.3509 109.68 16.8133C110.036 16.3077 110.568 16.0352 111.363 16.0352V15.0352ZM108.074 19.4961C108.074 20.8229 108.312 21.9083 108.867 22.6726C109.443 23.4666 110.305 23.8398 111.363 23.8398V22.8398C110.562 22.8398 110.03 22.5725 109.676 22.0853C109.301 21.5683 109.074 20.7318 109.074 19.4961H108.074ZM111.363 23.8398C112.095 23.8398 112.781 23.7442 113.42 23.5483L113.127 22.5923C112.594 22.7558 112.007 22.8398 111.363 22.8398V23.8398ZM113.426 23.5465C114.062 23.343 114.689 23.0319 115.309 22.6192L114.754 21.7871C114.201 22.1556 113.657 22.4226 113.121 22.5941L113.426 23.5465ZM114.531 22.2031V25.2617H115.531V22.2031H114.531ZM114.763 24.8397C114.226 25.1806 113.692 25.4106 113.158 25.5369L113.389 26.51C114.043 26.3551 114.68 26.0772 115.299 25.6838L114.763 24.8397ZM113.157 25.5372C112.623 25.6654 111.923 25.7344 111.047 25.7344V26.7344C111.967 26.7344 112.752 26.6627 113.39 26.5096L113.157 25.5372ZM126.668 12.8984V12.3984H126.425L126.275 12.5889L126.668 12.8984ZM130.605 12.8984L130.991 13.217L131.667 12.3984H130.605V12.8984ZM125.414 19.1797L125.029 18.8612L124.765 19.18L125.029 19.4986L125.414 19.1797ZM131.062 26V26.5H132.126L131.448 25.6811L131.062 26ZM127.008 26L126.619 26.3138L126.769 26.5H127.008V26ZM121.652 19.3555L122.042 19.0417L121.152 17.9384V19.3555H121.652ZM121.652 26V26.5H122.152V26H121.652ZM118.078 26H117.578V26.5H118.078V26ZM118.078 12.8984V12.3984H117.578V12.8984H118.078ZM121.652 12.8984H122.152V12.3984H121.652V12.8984ZM121.652 19.2617H121.152V20.7038L122.045 19.5712L121.652 19.2617ZM126.668 13.3984H130.605V12.3984H126.668V13.3984ZM130.22 12.5799L125.029 18.8612L125.799 19.4982L130.991 13.217L130.22 12.5799ZM125.029 19.4986L130.677 26.3189L131.448 25.6811L125.799 18.8608L125.029 19.4986ZM131.062 25.5H127.008V26.5H131.062V25.5ZM127.397 25.6862L122.042 19.0417L121.263 19.6692L126.619 26.3138L127.397 25.6862ZM121.152 19.3555V26H122.152V19.3555H121.152ZM121.652 25.5H118.078V26.5H121.652V25.5ZM118.578 26V12.8984H117.578V26H118.578ZM118.078 13.3984H121.652V12.3984H118.078V13.3984ZM121.152 12.8984V19.2617H122.152V12.8984H121.152ZM122.045 19.5712L127.061 13.208L126.275 12.5889L121.26 18.9522L122.045 19.5712ZM141.258 26L140.792 26.1809L140.916 26.5H141.258V26ZM140.566 24.2188L141.033 24.0378L140.909 23.7188H140.566V24.2188ZM140.473 24.2188V23.7188H140.231L140.081 23.9079L140.473 24.2188ZM138.609 25.8008L138.817 26.2556L138.82 26.2544L138.609 25.8008ZM133.148 25.1562L132.795 25.5098L132.797 25.5117L133.148 25.1562ZM133.523 19.0156L133.804 19.4296L133.805 19.4291L133.523 19.0156ZM137.93 17.9141L137.914 17.4143L137.912 17.4144L137.93 17.9141ZM140.203 17.8438L140.219 18.3435L140.703 18.3285V17.8438H140.203ZM134.473 16.2266L134.024 16.4467L134.236 16.8801L134.677 16.6829L134.473 16.2266ZM133.289 13.8125L133.057 13.3695L132.626 13.5953L132.84 14.0326L133.289 13.8125ZM143.754 26V26.5H144.254V26H143.754ZM140.203 19.9297H140.703V19.4125L140.186 19.43L140.203 19.9297ZM138.82 19.9766L138.835 20.4763L138.837 20.4763L138.82 19.9766ZM139.453 22.9062L139.108 22.5443L139.105 22.547L139.453 22.9062ZM141.724 25.8191L141.033 24.0378L140.1 24.3997L140.792 26.1809L141.724 25.8191ZM140.566 23.7188H140.473V24.7188H140.566V23.7188ZM140.081 23.9079C139.511 24.626 138.948 25.0929 138.399 25.3471L138.82 26.2544C139.552 25.9149 140.231 25.3271 140.864 24.5296L140.081 23.9079ZM138.402 25.346C137.857 25.5946 137.108 25.7344 136.125 25.7344V26.7344C137.189 26.7344 138.096 26.5851 138.817 26.2556L138.402 25.346ZM136.125 25.7344C134.967 25.7344 134.112 25.4065 133.5 24.8008L132.797 25.5117C133.638 26.3435 134.768 26.7344 136.125 26.7344V25.7344ZM133.502 24.8027C132.903 24.2039 132.57 23.3238 132.57 22.0859H131.57C131.57 23.5044 131.956 24.6711 132.795 25.5098L133.502 24.8027ZM132.57 22.0859C132.57 20.8253 133 19.9743 133.804 19.4296L133.243 18.6017C132.11 19.3694 131.57 20.5654 131.57 22.0859H132.57ZM133.805 19.4291C134.667 18.8424 136.025 18.4827 137.948 18.4137L137.912 17.4144C135.912 17.4861 134.333 17.8607 133.242 18.6022L133.805 19.4291ZM137.945 18.4138L140.219 18.3435L140.188 17.344L137.914 17.4143L137.945 18.4138ZM140.703 17.8438V17.2695H139.703V17.8438H140.703ZM140.703 17.2695C140.703 16.5254 140.512 15.8762 140.043 15.4178C139.576 14.9614 138.918 14.7773 138.164 14.7773V15.7773C138.77 15.7773 139.131 15.9253 139.344 16.133C139.554 16.3387 139.703 16.6855 139.703 17.2695H140.703ZM138.164 14.7773C137.021 14.7773 135.719 15.1212 134.268 15.7702L134.677 16.6829C136.055 16.0663 137.213 15.7773 138.164 15.7773V14.7773ZM134.922 16.0064L133.738 13.5924L132.84 14.0326L134.024 16.4467L134.922 16.0064ZM133.521 14.2555C134.952 13.5068 136.543 13.1289 138.305 13.1289V12.1289C136.395 12.1289 134.642 12.5401 133.057 13.3695L133.521 14.2555ZM138.305 13.1289C139.998 13.1289 141.216 13.4986 142.031 14.1646L142.664 13.3901C141.605 12.5249 140.127 12.1289 138.305 12.1289V13.1289ZM142.031 14.1646C142.82 14.809 143.254 15.81 143.254 17.2695H144.254C144.254 15.6041 143.75 14.2769 142.664 13.3901L142.031 14.1646ZM143.254 17.2695V26H144.254V17.2695H143.254ZM143.754 25.5H141.258V26.5H143.754V25.5ZM140.186 19.43L138.803 19.4768L138.837 20.4763L140.22 20.4294L140.186 19.43ZM138.805 19.4768C137.73 19.5091 136.843 19.7028 136.22 20.125L136.78 20.9531C137.172 20.6878 137.833 20.5065 138.835 20.4763L138.805 19.4768ZM136.22 20.125C135.553 20.5766 135.238 21.2686 135.238 22.1094H136.238C136.238 21.5439 136.432 21.1891 136.78 20.9531L136.22 20.125ZM135.238 22.1094C135.238 22.7096 135.414 23.2455 135.843 23.6201C136.26 23.9832 136.833 24.1211 137.473 24.1211V23.1211C136.956 23.1211 136.662 23.007 136.5 22.8662C136.352 22.7369 136.238 22.517 136.238 22.1094H135.238ZM137.473 24.1211C138.402 24.1211 139.197 23.8505 139.801 23.2655L139.105 22.547C138.725 22.9151 138.2 23.1211 137.473 23.1211V24.1211ZM139.798 23.2682C140.412 22.6835 140.703 21.9123 140.703 21.0078H139.703C139.703 21.6814 139.495 22.1759 139.108 22.5443L139.798 23.2682ZM140.703 21.0078V19.9297H139.703V21.0078H140.703Z" fill="black"/>
</g>
<g filter="url(#filter1_d)">
<path d="M161.352 14.7949L154.851 28.4072L149.65 31L149 25.8144L154.851 11.5539C154.851 11.5539 156.418 7.19545 158.752 7.01646C160.45 6.88622 161.738 7.52844 162.653 8.96107C163.909 10.93 161.352 14.7949 161.352 14.7949Z" fill="#FFB423"/>
<path d="M161.352 14.7949L154.851 28.4072L149.65 31L149 25.8144L154.851 11.5539C154.851 11.5539 156.418 7.19545 158.752 7.01646C160.45 6.88622 161.738 7.52844 162.653 8.96107C163.909 10.93 161.352 14.7949 161.352 14.7949Z" fill="url(#paint0_linear)"/>
<path d="M154.851 11.5539L161.352 14.7949M154.851 11.5539L149 25.8144L149.65 31L154.851 28.4072L161.352 14.7949M154.851 11.5539C154.851 11.5539 156.418 7.19545 158.752 7.01646C160.45 6.88622 161.738 7.52844 162.653 8.96107C163.909 10.93 161.352 14.7949 161.352 14.7949" stroke="black"/>
</g>
<path d="M149.373 25.878C149.45 25.7772 149.463 25.7651 149.562 25.721C149.606 25.7016 149.619 25.6699 149.67 25.6621C149.725 25.6537 149.793 25.6331 149.841 25.6033C149.963 25.5283 150.19 25.4908 150.333 25.4855C150.432 25.4819 150.583 25.461 150.672 25.5008C150.77 25.5441 150.915 25.4855 151.007 25.4855C151.122 25.4855 151.23 25.5051 151.342 25.5051C151.394 25.5051 151.424 25.5444 151.47 25.5444C151.533 25.5444 151.57 25.6285 151.617 25.6578C151.667 25.6887 151.653 25.779 151.686 25.8181C151.697 25.8306 151.755 25.915 151.755 25.9173C151.762 26.0323 151.807 25.9139 151.864 25.8879C151.925 25.8606 152.004 25.8406 152.06 25.8093C152.113 25.7802 152.185 25.8216 152.232 25.7843C152.259 25.7625 152.36 25.7799 152.395 25.7799C152.51 25.7799 152.624 25.7772 152.729 25.8006C152.84 25.8252 152.979 25.9211 153.064 25.9871C153.18 26.0767 153.286 26.1545 153.398 26.2498C153.431 26.2786 153.458 26.3241 153.496 26.36C153.535 26.3965 153.633 26.4555 153.644 26.5148C153.666 26.635 153.831 26.7366 153.881 26.8495C153.931 26.9629 154.014 27.0549 154.037 27.1843C154.052 27.263 154.086 27.312 154.113 27.3849C154.126 27.4229 154.187 27.5516 154.216 27.5659" stroke="black" stroke-linecap="round" stroke-linejoin="round"/>
<defs>
<filter id="filter0_d" x="0.65625" y="7.26562" width="147.598" height="33" filterUnits="userSpaceOnUse" color-interpolation-filters="sRGB">
<feFlood flood-opacity="0" result="BackgroundImageFix"/>
<feColorMatrix in="SourceAlpha" type="matrix" values="0 0 0 0 0 0 0 0 0 0 0 0 0 0 0 0 0 0 127 0"/>
<feOffset dy="4"/>
<feGaussianBlur stdDeviation="2"/>
<feColorMatrix type="matrix" values="0 0 0 0 0 0 0 0 0 0 0 0 0 0 0 0 0 0 0.25 0"/>
<feBlend mode="normal" in2="BackgroundImageFix" result="effect1_dropShadow"/>
<feBlend mode="normal" in="SourceGraphic" in2="effect1_dropShadow" result="shape"/>
</filter>
<filter id="filter1_d" x="144.488" y="6.5" width="23.0124" height="33.2622" filterUnits="userSpaceOnUse" color-interpolation-filters="sRGB">
<feFlood flood-opacity="0" result="BackgroundImageFix"/>
<feColorMatrix in="SourceAlpha" type="matrix" values="0 0 0 0 0 0 0 0 0 0 0 0 0 0 0 0 0 0 127 0"/>
<feOffset dy="4"/>
<feGaussianBlur stdDeviation="2"/>
<feColorMatrix type="matrix" values="0 0 0 0 0 0 0 0 0 0 0 0 0 0 0 0 0 0 0.25 0"/>
<feBlend mode="normal" in2="BackgroundImageFix" result="effect1_dropShadow"/>
<feBlend mode="normal" in="SourceGraphic" in2="effect1_dropShadow" result="shape"/>
</filter>
<linearGradient id="paint0_linear" x1="156" y1="7" x2="156" y2="31" gradientUnits="userSpaceOnUse">
<stop stop-color="#FF0000"/>
<stop offset="1" stop-color="white" stop-opacity="0"/>
</linearGradient>
</defs>
</svg>
